# AST/ASF file generated using VICON BodyLanguage
# -----------------------------------------------
:version 1.10
:name VICON
:units
  mass 1.0
  length 0.45
  angle deg
:documentation
   .ast/.asf automatically generated from VICON data using
   VICON BodyBuilder and BodyLanguage model FoxedUp or BRILLIANT.MOD
:root
   order TX TY TZ RX RY RZ
   axis XYZ
   position 0 0 0  
   orientation 0 0 0 
:bonedata
  begin
     id 1 
     name lhipjoint
     direction 0.543289 -0.788407 0.288535 
     length 2.57127 
     axis 0 0 0  XYZ
  end
  begin
     id 2 
     name lfemur
     direction 0.34202 -0.939693 0  
     length 8.47298  
     axis 0 0 20  XYZ
    dof rx ry rz
    limits (-160.0 20.0)
           (-70.0 70.0)
           (-60.0 70.0)
  end
  begin
     id 3 
     name ltibia
     direction 0.34202 -0.939693 0   
     length 8.13367   
     axis 0 0 20   XYZ
    dof rx
    limits (-10.0 170.0)
  end
  begin
     id 4 
     name lfoot
     direction 0.114037 -0.313314 0.942778   
     length 2.67113   
     axis -90 7.62852e-016 20   XYZ
    dof rx rz
    limits (-45.0 90.0)
           (-70.0 20.0)
  end
  begin
     id 5 
     name ltoes
     direction 1.536e-011 -4.21847e-011 1   
     length 1.32217   
     axis -90 7.62852e-016 20   XYZ
    dof rx
    limits (-90.0 20.0)
  end
  begin
     id 6 
     name rhipjoint
     direction -0.571293 -0.770752 0.282074   
     length 2.63017  
     axis 0 0 0  XYZ 
  end
  begin
     id 7 
     name rfemur
     direction -0.34202 -0.939693 0   
     length 8.60885   
     axis 0 0 -20   XYZ
    dof rx ry rz
    limits (-160.0 20.0)
           (-70.0 70.0)
           (-70.0 60.0)
  end
  begin
     id 8 
     name rtibia
     direction -0.34202 -0.939693 0   
     length 8.07673   
     axis 0 0 -20   XYZ
    dof rx
    limits (-10.0 170.0)
 end
 begin
     id 9 
     name rfoot
     direction -0.121336 -0.333368 0.934956   
     length 2.81602  
     axis -90 -7.62852e-016 -20   XYZ
    dof rx rz
    limits (-45.0 90.0)
           (-20.0 70.0)
  end
  begin
     id 10 
     name rtoes
     direction -1.53491e-011 -4.21808e-011 1   
     length 1.38905   
     axis -90 -7.62852e-016 -20   XYZ
    dof rx
    limits (-90.0 20.0)
  end
  begin
     id 11 
     name lowerback
     direction 0.0136776 0.999869 -0.00861835   
     length 2.14087   
     axis 0 0 0   XYZ
    dof rx ry rz
    limits (-20.0 45.0)
           (-30.0 30.0)
           (-30.0 30.0)
  end
  begin
     id 12 
     name upperback
     direction -0.00789158 0.999804 0.0181308   
     length 2.14151   
     axis 0 0 0   XYZ
    dof rx ry rz
    limits (-20.0 45.0)
           (-30.0 30.0)
           (-30.0 30.0)
  end
  begin
     id 13 
     name thorax
     direction -0.0135231 0.999666 0.0220247   
     length 2.13644   
     axis 0 0 0   XYZ
    dof rx ry rz
    limits (-20.0 45.0)
           (-30.0 30.0)
           (-30.0 30.0)
  end
  begin
     id 14 
     name lowerneck
     direction -0.0392259 0.997317 0.0618018   
     length 1.65045   
     axis 0 0 0   XYZ
    dof rx ry rz
    limits (-20.0 45.0)
           (-30.0 30.0)
           (-30.0 30.0)
  end
  begin
     id 15 
     name upperneck
     direction 0.0765547 0.994276 -0.0745319   
     length 1.66045   
     axis 0 0 0   XYZ
    dof rx ry rz
    limits (-20.0 45.0)
           (-30.0 30.0)
           (-30.0 30.0)
  end
  begin
     id 16
     name head
     direction 0.0241564 0.999031 -0.036785  
     length 1.66594  
     axis 0 0 0   XYZ
    dof rx ry rz
    limits (-20.0 45.0)
           (-30.0 30.0)
           (-30.0 30.0)
  end
  begin
     id 17 
     name lclavicle
     direction 0.967398 0.249018 0.0461573  
     length 3.75176  
     axis 0 0 0   XYZ
    dof ry rz
    limits (-20.0 10.0)
           (0.0 20.0)
  end
  begin
     id 18 
     name lhumerus
     direction 1 -4.48963e-011 -3.05005e-027   
     length 5.93342   
     axis 180 -30 -90   XYZ
    dof rx ry rz
    limits (-60.0 90.0)
           (-90.0 90.0)
           (-90.0 90.0)
  end
  begin
     id 19
     name lradius
     direction 1 -4.48957e-011 1.07006e-026   
     length 3.94763   
     axis 180 -30 -90   XYZ
    dof rx
    limits (-10.0 170.0)
  end
  begin
     id 20
     name lwrist
     direction 1 -4.48978e-011 1.92422e-026   
     length 1.97382   
     axis -1.18182e-014 90 90   XYZ
    dof ry
    limits (-180.0 0.0)
 end
  begin
     id 21 
     name lhand
     direction 1 -4.48931e-011 3.84844e-026   
     length 0.560187   
     axis -2.45563e-014 90 90   XYZ
    dof rx rz
    limits (-90.0 90.0)
           (-45.0 45.0)
  end
  begin
     id 22 
     name lfingers
     direction 1 -4.48952e-011 7.69687e-026   
     length 0.451637   
     axis -4.91126e-014 90 90   XYZ
    dof rx
    limits (0.0 90.0)
  end
  begin
     id 23
     name lthumb
     direction 0.707107 -6.34901e-011 0.707107   
     length 0.648463   
     axis -90 45 2.85299e-015   XYZ
    dof rx rz
    limits (-45.0 45.0)
           (-45.0 45.0)
  end
  begin
     id 24 
     name rclavicle
     direction -0.965946 0.258716 0.00371831   
     length 3.63667  
     axis 0 0 0   XYZ 
    dof ry rz
    limits (-10.0 20.0)
           (-20.0 0.0)
  end
  begin
     id 25 
     name rhumerus
     direction -1 -4.48966e-011 -1.78361e-028  
     length 6.28647   
     axis 180 30 90   XYZ
    dof rx ry rz
    limits (-90.0 60.0)
           (-90.0 90.0)
           (-90.0 90.0)
  end
  begin
     id 26 
     name rradius
     direction -1 -4.48961e-011 1.05248e-026   
     length 3.81645   
     axis 180 30 90   XYZ
    dof rx
    limits (-10.0 170.0)
  end
  begin
     id 27 
     name rwrist
     direction -1 -4.48979e-011 1.92422e-026   
     length 1.90822   
     axis -1.18182e-014 -90 -90   XYZ
    dof ry
    limits (-180.0 0.0)
  end
  begin
     id 28
     name rhand
     direction -1 -4.48937e-011 3.84844e-026   
     length 0.646185   
     axis -2.45563e-014 -90 -90   XYZ
    dof rx rz
    limits (-90.0 90.0)
           (-45.0 45.0)
  end
  begin
     id 29
     name rfingers
     direction -1 -4.48953e-011 7.69687e-026   
     length 0.520971   
     axis -4.91126e-014 -90 -90   XYZ
    dof rx
    limits (0.0 90.0)
  end
  begin
     id 30
     name rthumb
     direction -0.707107 -6.3494e-011 0.707107   
     length 0.748013   
     axis -90 -45 -2.85299e-015   XYZ
    dof rx rz
    limits (-45.0 45.0)
           (-45.0 45.0)
  end
:hierarchy
  begin
    root lhipjoint rhipjoint lowerback
    lhipjoint lfemur
    lfemur ltibia
    ltibia lfoot
    lfoot ltoes
    rhipjoint rfemur
    rfemur rtibia
    rtibia rfoot
    rfoot rtoes
    lowerback upperback
    upperback thorax
    thorax lowerneck lclavicle rclavicle
    lowerneck upperneck
    upperneck head
    lclavicle lhumerus
    lhumerus lradius
    lradius lwrist
    lwrist lhand lthumb
    lhand lfingers
    rclavicle rhumerus
    rhumerus rradius
    rradius rwrist
    rwrist rhand rthumb
    rhand rfingers
  end

#!OML:ASF H:\HAZMAT1\Patient Classification 1\Patient 3\Session 1\dancer.ASF
:FULLY-SPECIFIED
:DEGREES
180
upperback 0.581078 -7.777860 1.229180
rfoot -10.316300 -15.505500
lradius 35.941700
lthumb 19.264400 42.574799
rradius 30.520000
lwrist 3.256800
rhand -38.318100 -36.915699
rhumerus -26.295000 -33.584000 -2.649490
lowerneck -9.624170 2.049240 2.995700
lhand -6.590730 13.508900
ltibia 36.966702
head 10.521300 2.587870 -1.441150
rwrist -12.554600
lfingers 7.125020
rtoes 6.187920
lowerback 0.390917 -5.871460 4.875870
rfingers 7.125020
lclavicle 0.000000 0.000000
upperneck 27.379999 4.970550 -4.508820
rfemur -32.310799 7.494540 9.880740
thorax -0.094133 -3.859620 -1.368920
rclavicle 0.000000 0.000000
rtibia 77.579102
lfoot -17.139099 -3.114980
lhumerus -3.348390 20.831600 16.059099
rthumb -11.346100 -66.588699
root -34.945599 19.454800 27.921000 182.766006 22.430099 533.080994
ltoes 12.506000
lfemur -20.306499 -17.267200 -24.669901
181
upperback 2.143170 -12.201600 0.816263
rfoot 22.723499 -2.047100
lradius 39.512798
lthumb 18.965799 39.790699
rradius 29.585300
lwrist -6.906340
rhand -36.811501 -38.571301
rhumerus -33.116100 -36.757999 2.532740
lowerneck -8.154200 1.834500 3.293500
lhand -6.901250 10.695400
ltibia 26.974899
head 9.799420 2.357690 -0.301549
rwrist -11.333200
lfingers 7.125020
rtoes 20.398701
lowerback 3.420860 -9.273530 2.373910
rfingers 7.125020
lclavicle 0.000000 -0.000000
upperneck 26.552099 3.492390 -0.555266
rfemur -63.609699 5.989690 35.002800
thorax 0.015692 -6.047820 -0.017582
rclavicle 0.000000 -0.000000
rtibia 57.910099
lfoot -11.312100 -0.199219
lhumerus 17.016500 3.362140 21.801800
rthumb -9.892770 -68.318901
root -35.215401 19.797199 27.423901 185.104004 14.089600 537.804016
ltoes -4.086280
lfemur -15.190000 -18.986000 -23.126499
182
upperback 2.047260 -12.757200 3.595550
rfoot 19.311199 -5.936320
lradius 29.389400
lthumb 18.117599 39.374100
rradius 29.241400
lwrist -18.702801
rhand -35.895000 -37.937599
rhumerus -30.165600 -36.725800 1.500530
lowerneck -8.403460 0.654206 0.752678
lhand -7.783060 10.197900
ltibia 24.739000
head 9.636480 1.455190 -0.378400
rwrist -12.746400
lfingers 7.125020
rtoes 19.723700
lowerback 4.834820 -9.759510 0.981909
rfingers 7.125020
lclavicle -0.000000 -0.000000
upperneck 26.084900 2.442010 -1.677080
rfemur -78.610802 9.343420 29.435301
thorax 0.070297 -6.330960 3.694840
rclavicle -0.000000 -0.000000
rtibia 49.095200
lfoot -8.936300 0.729808
lhumerus 22.263000 5.876740 22.109501
rthumb -9.008520 -67.725304
root -35.701401 19.947201 27.184700 190.003998 15.267100 538.812988
ltoes -3.807840
lfemur -18.884800 -14.363100 -23.674101
183
upperback 1.091000 -9.265620 5.911000
rfoot 26.852301 -14.550300
lradius 24.614401
lthumb 20.234600 41.901299
rradius 28.634501
lwrist -18.651800
rhand -35.117699 -37.550301
rhumerus -23.084499 -37.053001 -3.515450
lowerneck -10.127500 -2.621230 -1.040370
lhand -5.581510 12.935200
ltibia 29.257000
head 10.645800 -0.605011 -0.622446
rwrist -11.562800
lfingers 7.125020
rtoes 33.851799
lowerback 1.832680 -7.283270 6.551490
rfingers 7.125020
lclavicle 0.000000 -0.000000
upperneck 28.032400 -1.617010 -1.941840
rfemur -67.844398 -1.337100 -4.774720
thorax 0.054166 -4.474190 2.663530
rclavicle 0.000000 -0.000000
rtibia 104.281998
lfoot -9.364930 3.356030
lhumerus 12.285300 11.192300 17.533899
rthumb -8.258370 -67.368896
root -36.412701 19.939100 26.957500 197.033005 20.614901 541.973999
ltoes 0.123951
lfemur -27.840599 -8.682880 -23.434000
184
upperback 0.020228 -2.727720 4.393330
rfoot 27.071301 -4.513190
lradius 22.191200
lthumb 20.614201 43.919998
rradius 29.206400
lwrist -20.837700
rhand -35.147900 -37.632999
rhumerus -19.643499 -36.000801 -4.273440
lowerneck -11.853700 -4.308710 0.071657
lhand -5.186540 14.994700
ltibia 41.677200
head 10.769000 -1.872960 -0.167139
rwrist -11.050900
lfingers 7.125020
rtoes 27.311701
lowerback -0.712241 -2.164020 9.284180
rfingers 7.125020
lclavicle 0.000000 0.000000
upperneck 27.334200 -5.336430 1.228410
rfemur -22.537600 17.539101 0.504602
thorax 0.188639 -1.244720 -0.661938
rclavicle 0.000000 0.000000
rtibia 71.610199
lfoot -15.703500 11.952900
lhumerus -4.981520 10.869600 11.223500
rthumb -8.287510 -67.450500
root -36.900398 19.337200 26.750799 206.294006 28.971701 546.710022
ltoes -3.194950
lfemur -41.591400 -5.429610 -21.789400
185
upperback -0.981045 4.190250 -1.468690
rfoot -25.264799 5.405730
lradius 19.922100
lthumb 16.248501 45.306499
rradius 29.547001
lwrist -19.328199
rhand -34.456699 -35.514999
rhumerus -12.038100 -30.822500 -14.633400
lowerneck -11.520100 -4.358480 3.467020
lhand -9.724930 15.967300
ltibia 51.341202
head 9.211530 -2.165960 0.499568
rwrist -8.432790
lfingers 7.125020
rtoes -5.547620
lowerback -0.062853 3.112940 8.023100
rfingers 7.125020
lclavicle 0.000000 -0.000000
upperneck 22.939199 -7.234980 5.381910
rfemur -11.394700 4.637060 33.875301
thorax -0.299112 2.058020 -6.006110
rclavicle 0.000000 -0.000000
rtibia 36.005501
lfoot -17.470900 19.166100
lhumerus -21.583799 13.303300 7.790840
rthumb -7.620370 -65.357697
root -37.615101 18.810301 26.709900 213.007004 39.052700 550.799011
ltoes -6.185240
lfemur -52.038502 -3.337050 -22.238800
186
upperback 1.052690 1.788500 -2.633250
rfoot -26.609400 -2.820430
lradius 16.035700
lthumb 14.703500 42.809399
rradius 37.310902
lwrist -29.846500
rhand -34.428001 -28.370100
rhumerus 2.227100 -22.555300 -17.378099
lowerneck -10.343400 -2.572040 4.914360
lhand -11.329000 13.350800
ltibia 58.237999
head 8.061840 -1.211010 -2.129640
rwrist 0.417153
lfingers 7.125020
rtoes -3.847320
lowerback 3.387430 1.086390 10.285200
rfingers 7.125020
lclavicle -0.000000 -0.000000
upperneck 21.025200 -3.223930 -3.077210
rfemur -28.135000 18.876699 31.133400
thorax -0.400711 0.931593 -8.645850
rclavicle -0.000000 -0.000000
rtibia 34.577702
lfoot 11.949400 -7.725450
lhumerus -35.746201 21.046101 13.292200
rthumb -7.592680 -58.213799
root -39.335400 19.151100 26.457199 200.932007 38.382999 539.318970
ltoes 14.518300
lfemur -56.469200 3.045220 -36.060200
187
upperback 3.179120 -3.388050 -1.325190
rfoot -25.299299 -13.370600
lradius 17.067499
lthumb 13.962600 46.402802
rradius 29.546900
lwrist -29.490101
rhand -33.204601 -27.993401
rhumerus -3.207040 -26.219000 -14.958900
lowerneck -9.913610 -1.332550 5.414590
lhand -12.097900 16.891600
ltibia 37.607700
head 6.602690 -0.647829 -3.448840
rwrist 6.059650
lfingers 7.125020
rtoes 7.441840
lowerback 11.615000 -3.427560 8.257300
rfingers 7.125020
lclavicle 0.000000 -0.000000
upperneck 16.639299 -1.015350 -7.692320
rfemur -34.454201 10.199600 22.819599
thorax -3.723630 -1.628660 -5.548880
rclavicle 0.000000 -0.000000
rtibia 46.118099
lfoot -8.826770 30.654100
lhumerus -2.984810 24.228800 21.469999
rthumb -6.411720 -57.876400
root -41.166801 19.142200 26.917801 191.699997 27.347799 531.174011
ltoes 41.676498
lfemur -68.267998 -10.514200 7.656970
